<svg width="24" height="24" fill="none" version="1.1" viewBox="0 0 24 24" xmlns="http://www.w3.org/2000/svg">
 <path d="m18.826 18.288c0.9505-0.9505 1.6812-2.1135 2.1568-3.4642l9e-4 -0.0023c0.0371-0.1045 0.0096-0.2166-0.0638-0.2893l-0.0053-0.0052c-0.0782-0.0786-0.1921-0.1028-0.2903-0.0678l-0.0025 9e-4c-3.1997 1.1293-6.6792 0.3603-9.0598-2.0218-2.3831-2.3832-3.1552-5.8629-2.0213-9.0611l4.3e-4 -0.00123c0.03453-0.09699 0.01191-0.21054-0.06939-0.29182l-0.00187-0.00187v-1e-5c-0.07462-0.075-0.18787-0.10287-0.29396-0.06624-1.3516 0.47925-2.5142 1.2087-3.4639 2.1567m13.114 13.116c-1.8062 1.8077-4.1806 2.7117-6.5554 2.7117-2.3748 2.5e-5 -4.7501-0.9039-6.5583-2.712-1.808-1.808-2.712-4.1832-2.712-6.5581-6.38e-5 -2.3749 0.90378-4.7496 2.7114-6.5568" stroke="currentColor" stroke-linejoin="bevel" stroke-width="2"/>
</svg>
